<mxfile host="app.diagrams.net" modified="2024-04-12T19:54:42.028Z" agent="Mozilla/5.0 (Windows NT 10.0; Win64; x64) AppleWebKit/537.36 (KHTML, like Gecko) Chrome/123.0.0.0 Safari/537.36" etag="gkXruboHAEUUN85EZjxh" version="24.0.1" type="device">
  <diagram name="PÃ¡gina-1" id="X9kz4zzgPgl9_FFm2nBH">
    <mxGraphModel dx="1120" dy="1595" grid="1" gridSize="10" guides="1" tooltips="1" connect="1" arrows="1" fold="1" page="1" pageScale="1" pageWidth="827" pageHeight="1169" math="0" shadow="0">
      <root>
        <mxCell id="0" />
        <mxCell id="1" parent="0" />
        <mxCell id="ECbVgza7_MHBFeyQxnqD-1" value="" style="swimlane;shadow=0;strokeColor=#4277BB;fillColor=#ffffff;fontColor=#4277BB;align=left;startSize=0;collapsible=0;strokeWidth=3;labelPosition=right;verticalLabelPosition=middle;verticalAlign=middle;" vertex="1" parent="1">
          <mxGeometry x="630" y="-475" width="1511" height="230" as="geometry" />
        </mxCell>
        <mxCell id="ECbVgza7_MHBFeyQxnqD-3" style="edgeStyle=elbowEdgeStyle;rounded=0;elbow=vertical;html=1;exitX=0;exitY=0.5;entryX=0;entryY=0.5;labelBackgroundColor=#ffffff;startArrow=classic;startFill=1;startSize=4;endArrow=none;endFill=0;endSize=4;jettySize=auto;orthogonalLoop=1;strokeColor=#4277BB;strokeWidth=2;fontSize=12;fontColor=#4277BB;" edge="1" parent="ECbVgza7_MHBFeyQxnqD-1">
          <mxGeometry relative="1" as="geometry">
            <mxPoint x="58.42857142857156" y="690" as="sourcePoint" />
            <mxPoint x="58.42857142857156" y="690" as="targetPoint" />
          </mxGeometry>
        </mxCell>
        <mxCell id="ECbVgza7_MHBFeyQxnqD-4" value="" style="line;strokeWidth=3;direction=south;html=1;shadow=0;labelBackgroundColor=none;fillColor=none;gradientColor=none;fontSize=12;fontColor=#4277BB;align=right;strokeColor=#4277BB;" vertex="1" parent="ECbVgza7_MHBFeyQxnqD-1">
          <mxGeometry x="450" width="10" height="230" as="geometry" />
        </mxCell>
        <mxCell id="ECbVgza7_MHBFeyQxnqD-5" value="CONTROLADOR" style="text;html=1;align=center;verticalAlign=top;fontColor=#4277BB;shadow=0;dashed=0;strokeColor=none;fillColor=none;labelBackgroundColor=none;fontStyle=1;fontSize=16;spacingLeft=5;" vertex="1" parent="ECbVgza7_MHBFeyQxnqD-1">
          <mxGeometry x="650" y="7" width="200" height="40" as="geometry" />
        </mxCell>
        <mxCell id="ECbVgza7_MHBFeyQxnqD-8" value="&lt;div&gt;CONSUMIDOR&lt;/div&gt;&lt;div&gt;&lt;br&gt;&lt;/div&gt;" style="text;html=1;align=center;verticalAlign=top;fontColor=#4277BB;shadow=0;dashed=0;strokeColor=none;fillColor=none;labelBackgroundColor=none;fontStyle=1;fontSize=16;spacingLeft=5;" vertex="1" parent="ECbVgza7_MHBFeyQxnqD-1">
          <mxGeometry y="7" width="210" height="49" as="geometry" />
        </mxCell>
        <mxCell id="ECbVgza7_MHBFeyQxnqD-9" value="CLIENTE" style="text;html=1;align=center;verticalAlign=top;fontColor=#4277BB;shadow=0;dashed=0;strokeColor=none;fillColor=none;labelBackgroundColor=none;fontStyle=1;fontSize=16;spacingLeft=5;" vertex="1" parent="ECbVgza7_MHBFeyQxnqD-1">
          <mxGeometry x="149" y="8" width="330" height="39" as="geometry" />
        </mxCell>
        <mxCell id="ECbVgza7_MHBFeyQxnqD-10" value="" style="line;strokeWidth=3;direction=south;html=1;shadow=0;labelBackgroundColor=none;fillColor=none;gradientColor=none;fontSize=12;fontColor=#4277BB;align=right;strokeColor=#4277BB;" vertex="1" parent="ECbVgza7_MHBFeyQxnqD-1">
          <mxGeometry x="209" width="10" height="230" as="geometry" />
        </mxCell>
        <mxCell id="ECbVgza7_MHBFeyQxnqD-11" style="edgeStyle=orthogonalEdgeStyle;rounded=0;orthogonalLoop=1;jettySize=auto;html=1;strokeColor=#4277BB;strokeWidth=2;entryX=0;entryY=0.5;entryDx=0;entryDy=0;" edge="1" parent="ECbVgza7_MHBFeyQxnqD-1" source="ECbVgza7_MHBFeyQxnqD-32" target="ECbVgza7_MHBFeyQxnqD-19">
          <mxGeometry relative="1" as="geometry">
            <mxPoint x="241.5" y="140.5" as="targetPoint" />
            <mxPoint x="253.75" y="140.5" as="sourcePoint" />
            <Array as="points">
              <mxPoint x="143.5" y="107" />
              <mxPoint x="143.5" y="112" />
              <mxPoint x="283.5" y="112" />
              <mxPoint x="283.5" y="106" />
            </Array>
          </mxGeometry>
        </mxCell>
        <mxCell id="ECbVgza7_MHBFeyQxnqD-13" style="edgeStyle=orthogonalEdgeStyle;rounded=0;orthogonalLoop=1;jettySize=auto;html=1;dashed=1;" edge="1" parent="ECbVgza7_MHBFeyQxnqD-1" source="ECbVgza7_MHBFeyQxnqD-14">
          <mxGeometry relative="1" as="geometry">
            <mxPoint x="710" y="104" as="targetPoint" />
          </mxGeometry>
        </mxCell>
        <mxCell id="ECbVgza7_MHBFeyQxnqD-14" value="apiusuario" style="aspect=fixed;perimeter=ellipsePerimeter;html=1;align=center;shadow=0;dashed=0;image;image=img/lib/ibm/applications/enterprise_applications.svg;labelBackgroundColor=#ffffff;strokeColor=#666666;strokeWidth=2;fillColor=#C2952D;gradientColor=none;fontSize=12;fontColor=#4277BB;" vertex="1" parent="ECbVgza7_MHBFeyQxnqD-1">
          <mxGeometry x="520" y="74" width="60" height="60" as="geometry" />
        </mxCell>
        <mxCell id="ECbVgza7_MHBFeyQxnqD-19" value="&lt;div&gt;&lt;span style=&quot;color: rgb(66, 119, 187);&quot;&gt;api-cliente-para-api-usuario&lt;/span&gt;&lt;font color=&quot;#4277bb&quot;&gt;&lt;br&gt;&lt;/font&gt;&lt;/div&gt;" style="aspect=fixed;perimeter=ellipsePerimeter;html=1;align=center;shadow=0;dashed=0;image;image=img/lib/ibm/applications/enterprise_applications.svg;labelBackgroundColor=#ffffff;strokeColor=#666666;strokeWidth=2;fillColor=#C2952D;gradientColor=none;fontSize=12;fontColor=#000000;" vertex="1" parent="ECbVgza7_MHBFeyQxnqD-1">
          <mxGeometry x="293.5" y="76" width="60" height="60" as="geometry" />
        </mxCell>
        <mxCell id="ECbVgza7_MHBFeyQxnqD-26" value="" style="line;strokeWidth=3;direction=south;html=1;shadow=0;labelBackgroundColor=none;fillColor=none;gradientColor=none;fontSize=12;fontColor=#4277BB;align=right;strokeColor=#4277BB;" vertex="1" parent="ECbVgza7_MHBFeyQxnqD-1">
          <mxGeometry x="650" width="10" height="230" as="geometry" />
        </mxCell>
        <mxCell id="ECbVgza7_MHBFeyQxnqD-28" value="TESTDB" style="aspect=fixed;perimeter=ellipsePerimeter;html=1;align=center;shadow=0;dashed=0;image;image=img/lib/ibm/data/data_services.svg;labelBackgroundColor=#ffffff;strokeColor=#666666;strokeWidth=2;fillColor=#C2952D;gradientColor=none;fontSize=12;fontColor=#4277BB;spacingTop=3;labelPosition=center;verticalLabelPosition=bottom;verticalAlign=top;" vertex="1" parent="ECbVgza7_MHBFeyQxnqD-1">
          <mxGeometry x="1378" y="66" width="60" height="60" as="geometry" />
        </mxCell>
        <mxCell id="ECbVgza7_MHBFeyQxnqD-32" value="Usuario&lt;div&gt;&lt;br&gt;&lt;/div&gt;" style="image;aspect=fixed;html=1;points=[];align=center;fontSize=12;image=img/lib/azure2/azure_stack/User_Subscriptions.svg;" vertex="1" parent="ECbVgza7_MHBFeyQxnqD-1">
          <mxGeometry x="74.5" y="74" width="68" height="66" as="geometry" />
        </mxCell>
        <mxCell id="ECbVgza7_MHBFeyQxnqD-42" value="" style="line;strokeWidth=3;direction=south;html=1;shadow=0;labelBackgroundColor=none;fillColor=none;gradientColor=none;fontSize=12;fontColor=#4277BB;align=right;strokeColor=#4277BB;" vertex="1" parent="ECbVgza7_MHBFeyQxnqD-1">
          <mxGeometry x="830" width="10" height="230" as="geometry" />
        </mxCell>
        <mxCell id="ECbVgza7_MHBFeyQxnqD-57" style="edgeStyle=orthogonalEdgeStyle;rounded=0;orthogonalLoop=1;jettySize=auto;html=1;entryX=0;entryY=0.5;entryDx=0;entryDy=0;dashed=1;" edge="1" parent="ECbVgza7_MHBFeyQxnqD-1">
          <mxGeometry relative="1" as="geometry">
            <mxPoint x="1250" y="546" as="sourcePoint" />
            <mxPoint x="1740" y="540" as="targetPoint" />
          </mxGeometry>
        </mxCell>
        <mxCell id="ECbVgza7_MHBFeyQxnqD-66" style="edgeStyle=orthogonalEdgeStyle;rounded=0;orthogonalLoop=1;jettySize=auto;html=1;exitX=1;exitY=0.5;exitDx=0;exitDy=0;entryX=0;entryY=0.5;entryDx=0;entryDy=0;dashed=1;" edge="1" parent="ECbVgza7_MHBFeyQxnqD-1">
          <mxGeometry relative="1" as="geometry">
            <mxPoint x="1242" y="776" as="sourcePoint" />
            <mxPoint x="1740" y="776" as="targetPoint" />
          </mxGeometry>
        </mxCell>
        <mxCell id="ECbVgza7_MHBFeyQxnqD-72" style="edgeStyle=orthogonalEdgeStyle;rounded=0;orthogonalLoop=1;jettySize=auto;html=1;dashed=1;entryX=0;entryY=0.5;entryDx=0;entryDy=0;" edge="1" parent="ECbVgza7_MHBFeyQxnqD-1">
          <mxGeometry relative="1" as="geometry">
            <mxPoint x="755.5" y="103.5" as="sourcePoint" />
            <mxPoint x="914.5" y="103.5" as="targetPoint" />
          </mxGeometry>
        </mxCell>
        <mxCell id="ECbVgza7_MHBFeyQxnqD-74" style="edgeStyle=orthogonalEdgeStyle;rounded=0;orthogonalLoop=1;jettySize=auto;html=1;dashed=1;entryX=0;entryY=0.5;entryDx=0;entryDy=0;" edge="1" parent="ECbVgza7_MHBFeyQxnqD-1" target="ECbVgza7_MHBFeyQxnqD-14">
          <mxGeometry relative="1" as="geometry">
            <mxPoint x="353.5" y="105.5" as="sourcePoint" />
            <mxPoint x="512.5" y="105.5" as="targetPoint" />
            <Array as="points">
              <mxPoint x="510" y="106" />
              <mxPoint x="510" y="104" />
            </Array>
          </mxGeometry>
        </mxCell>
        <mxCell id="ECbVgza7_MHBFeyQxnqD-75" value="UserController" style="shape=image;html=1;verticalLabelPosition=bottom;verticalAlign=top;imageAspect=1;aspect=fixed;image=img/clipart/Gear_128x128.png" vertex="1" parent="ECbVgza7_MHBFeyQxnqD-1">
          <mxGeometry x="710" y="65" width="52" height="61" as="geometry" />
        </mxCell>
        <mxCell id="ECbVgza7_MHBFeyQxnqD-27" value="API" style="text;html=1;align=center;verticalAlign=top;fontColor=#4277BB;shadow=0;dashed=0;strokeColor=none;fillColor=none;labelBackgroundColor=none;fontStyle=1;fontSize=16;spacingLeft=5;" vertex="1" parent="ECbVgza7_MHBFeyQxnqD-1">
          <mxGeometry x="479" y="12" width="140" height="39" as="geometry" />
        </mxCell>
        <mxCell id="ECbVgza7_MHBFeyQxnqD-73" value="BASE DE DATOS" style="text;html=1;align=center;verticalAlign=top;fontColor=#4277BB;shadow=0;dashed=0;strokeColor=none;fillColor=none;labelBackgroundColor=none;fontStyle=1;fontSize=16;spacingLeft=5;" vertex="1" parent="ECbVgza7_MHBFeyQxnqD-1">
          <mxGeometry x="1320" y="8" width="170" height="39" as="geometry" />
        </mxCell>
        <mxCell id="ECbVgza7_MHBFeyQxnqD-76" value="CAPA DE SERVICIO" style="text;html=1;align=center;verticalAlign=top;fontColor=#4277BB;shadow=0;dashed=0;strokeColor=none;fillColor=none;labelBackgroundColor=none;fontStyle=1;fontSize=16;spacingLeft=5;" vertex="1" parent="ECbVgza7_MHBFeyQxnqD-1">
          <mxGeometry x="850" y="8" width="170" height="39" as="geometry" />
        </mxCell>
        <mxCell id="ECbVgza7_MHBFeyQxnqD-77" value="UserService" style="shape=image;html=1;verticalLabelPosition=bottom;verticalAlign=top;imageAspect=1;aspect=fixed;image=img/clipart/Gear_128x128.png" vertex="1" parent="ECbVgza7_MHBFeyQxnqD-1">
          <mxGeometry x="909" y="65" width="52" height="61" as="geometry" />
        </mxCell>
        <mxCell id="ECbVgza7_MHBFeyQxnqD-80" value="" style="line;strokeWidth=3;direction=south;html=1;shadow=0;labelBackgroundColor=none;fillColor=none;gradientColor=none;fontSize=12;fontColor=#4277BB;align=right;strokeColor=#4277BB;" vertex="1" parent="ECbVgza7_MHBFeyQxnqD-1">
          <mxGeometry x="1024" width="10" height="230" as="geometry" />
        </mxCell>
        <mxCell id="ECbVgza7_MHBFeyQxnqD-81" value="" style="line;strokeWidth=3;direction=south;html=1;shadow=0;labelBackgroundColor=none;fillColor=none;gradientColor=none;fontSize=12;fontColor=#4277BB;align=right;strokeColor=#4277BB;" vertex="1" parent="ECbVgza7_MHBFeyQxnqD-1">
          <mxGeometry x="1280" width="10" height="230" as="geometry" />
        </mxCell>
        <mxCell id="ECbVgza7_MHBFeyQxnqD-82" value="CAPA DE ACCESO A DATOS" style="text;html=1;align=center;verticalAlign=top;fontColor=#4277BB;shadow=0;dashed=0;strokeColor=none;fillColor=none;labelBackgroundColor=none;fontStyle=1;fontSize=16;spacingLeft=5;" vertex="1" parent="ECbVgza7_MHBFeyQxnqD-1">
          <mxGeometry x="1070" y="8" width="170" height="39" as="geometry" />
        </mxCell>
        <mxCell id="ECbVgza7_MHBFeyQxnqD-83" value="UserRepository" style="shape=image;html=1;verticalLabelPosition=bottom;verticalAlign=top;imageAspect=1;aspect=fixed;image=img/clipart/Gear_128x128.png" vertex="1" parent="ECbVgza7_MHBFeyQxnqD-1">
          <mxGeometry x="1120" y="65" width="52" height="61" as="geometry" />
        </mxCell>
        <mxCell id="ECbVgza7_MHBFeyQxnqD-85" style="edgeStyle=orthogonalEdgeStyle;rounded=0;orthogonalLoop=1;jettySize=auto;html=1;dashed=1;entryX=0;entryY=0.5;entryDx=0;entryDy=0;" edge="1" parent="ECbVgza7_MHBFeyQxnqD-1">
          <mxGeometry relative="1" as="geometry">
            <mxPoint x="961" y="95" as="sourcePoint" />
            <mxPoint x="1120" y="95" as="targetPoint" />
          </mxGeometry>
        </mxCell>
        <mxCell id="ECbVgza7_MHBFeyQxnqD-86" style="edgeStyle=orthogonalEdgeStyle;rounded=0;orthogonalLoop=1;jettySize=auto;html=1;dashed=1;" edge="1" parent="ECbVgza7_MHBFeyQxnqD-1" target="ECbVgza7_MHBFeyQxnqD-28">
          <mxGeometry relative="1" as="geometry">
            <mxPoint x="1161" y="95" as="sourcePoint" />
            <mxPoint x="1320" y="95" as="targetPoint" />
          </mxGeometry>
        </mxCell>
      </root>
    </mxGraphModel>
  </diagram>
</mxfile>
